<?xml version="1.0" standalone="no"?>
<!DOCTYPE svg PUBLIC "-//W3C//DTD SVG 20010904//EN"
 "http://www.w3.org/TR/2001/REC-SVG-20010904/DTD/svg10.dtd">
<svg version="1.0" xmlns="http://www.w3.org/2000/svg"
 width="512.000000pt" height="512.000000pt" viewBox="0 0 512.000000 512.000000"
 preserveAspectRatio="xMidYMid meet">
<metadata>
Created by potrace 1.14, written by Peter Selinger 2001-2017
</metadata>
<g transform="translate(0.000000,512.000000) scale(0.100000,-0.100000)"
fill="#000000" stroke="none">
<path d="M914 4946 c-63 -20 -165 -74 -213 -115 -25 -20 -57 -45 -72 -56 -28
-20 -193 -203 -217 -240 -24 -38 -122 -244 -122 -257 0 -8 -4 -18 -10 -24 -5
-5 -12 -25 -14 -44 -3 -19 -6 -37 -7 -40 -1 -3 -3 -16 -4 -30 -2 -14 -4 -27
-5 -30 -7 -14 -6 -201 1 -205 4 -3 6 -17 3 -31 -3 -14 0 -32 7 -40 6 -8 8 -14
4 -14 -4 0 -2 -7 5 -15 7 -8 10 -15 6 -15 -4 0 1 -11 10 -25 9 -14 13 -25 10
-25 -4 0 -2 -6 4 -12 12 -15 68 -109 107 -180 14 -26 30 -48 35 -48 5 0 6 -4
3 -10 -3 -5 -1 -10 4 -10 6 0 11 -6 11 -14 0 -8 3 -16 8 -18 4 -1 26 -28 49
-58 85 -112 137 -148 326 -224 228 -93 336 -117 612 -135 194 -14 280 -36 422
-111 125 -66 196 -109 201 -121 2 -4 12 -17 23 -30 33 -39 58 -84 79 -145 11
-31 20 -60 20 -63 0 -3 -23 -17 -50 -30 l-49 -25 -58 40 c-31 21 -84 63 -117
92 -34 28 -66 52 -73 52 -6 0 -13 3 -15 8 -6 15 -145 81 -218 103 -60 18 -100
23 -195 23 -113 1 -123 -1 -166 -26 -72 -42 -146 -115 -201 -197 -28 -41 -51
-81 -51 -88 0 -7 -3 -13 -7 -13 -4 0 -7 -6 -8 -12 0 -7 -8 -33 -17 -58 -46
-125 -45 -414 2 -520 9 -19 15 -38 15 -42 -1 -5 3 -8 10 -8 6 0 9 -3 5 -6 -7
-7 22 -44 94 -115 66 -67 125 -92 254 -108 195 -24 437 -12 638 33 86 18 136
7 235 -53 117 -71 111 -127 -23 -206 -22 -13 -101 -46 -175 -74 -185 -70 -326
-141 -380 -193 -56 -54 -100 -105 -100 -117 0 -5 -4 -11 -9 -13 -5 -1 -11 -10
-13 -18 -2 -8 -7 -18 -11 -21 -5 -3 -9 -12 -10 -20 -2 -8 -5 -18 -9 -24 -23
-37 -29 -102 -18 -182 7 -46 16 -86 21 -89 5 -3 7 -10 3 -15 -3 -5 -1 -15 4
-22 6 -7 11 -15 11 -19 1 -5 1 -9 2 -10 0 -2 2 -14 3 -26 2 -13 9 -28 17 -33
8 -5 10 -9 5 -9 -4 0 -1 -11 8 -25 9 -14 13 -25 9 -25 -5 0 -3 -4 2 -8 6 -4
23 -27 37 -52 38 -64 92 -113 178 -158 339 -181 710 -78 750 207 10 74 30 117
76 164 65 66 210 120 248 91 22 -15 16 -40 -27 -107 -38 -61 -47 -111 -36
-201 12 -93 47 -163 114 -224 67 -61 133 -82 262 -82 152 0 256 29 368 105
l64 43 48 -23 c57 -26 119 -92 159 -170 l29 -55 643 0 642 0 0 364 c0 279 -3
366 -12 373 -7 6 -57 25 -112 42 -152 49 -221 87 -303 166 -64 64 -73 78 -91
140 -12 39 -24 92 -27 118 l-7 49 74 76 c40 43 80 80 88 83 33 14 161 159 180
203 34 81 50 161 50 258 0 190 -94 367 -216 409 -52 18 -170 18 -214 0 -65
-27 -121 -73 -182 -149 -33 -43 -67 -84 -74 -92 -61 -68 -100 -105 -107 -102
-5 1 -6 -2 -3 -6 3 -5 -19 -33 -49 -61 -52 -49 -56 -51 -110 -51 -40 0 -70 7
-106 26 l-51 26 4 57 c4 52 10 65 64 136 49 66 71 85 129 116 39 21 93 43 120
50 115 28 156 41 169 55 8 8 18 14 23 14 14 0 59 46 82 83 57 93 81 354 46
492 -19 73 -70 185 -84 185 -6 0 -10 3 -8 8 5 17 -67 87 -118 115 -33 18 -56
22 -130 22 -81 0 -97 -4 -165 -35 -41 -19 -82 -39 -89 -45 -39 -27 -171 -167
-166 -175 4 -6 2 -10 -3 -10 -10 0 -9 1 -16 -95 -3 -38 -5 -72 -6 -75 -2 -3
-2 -8 -1 -12 0 -4 -9 -14 -22 -22 -29 -19 -106 -5 -155 27 l-34 22 5 115 c3
91 10 132 32 195 38 113 117 273 194 394 16 25 42 73 58 106 15 33 33 63 38
67 6 4 6 8 1 8 -5 0 -4 6 2 13 6 7 12 24 14 37 2 14 7 31 11 37 4 7 9 32 11
56 1 23 5 47 8 53 4 5 5 41 3 79 -2 39 -4 80 -5 92 0 12 -5 25 -10 28 -6 4 -8
11 -4 16 3 5 0 16 -6 24 -7 8 -10 15 -6 15 4 0 0 14 -9 30 -9 17 -13 30 -11
30 11 0 -79 169 -112 209 -108 133 -211 201 -336 222 -108 18 -346 7 -426 -21
-123 -42 -203 -86 -265 -148 -115 -114 -144 -164 -145 -248 0 -56 35 -184 54
-196 6 -4 7 -8 3 -8 -4 0 8 -30 28 -66 27 -51 32 -70 24 -80 -6 -8 -9 -14 -5
-14 3 0 -15 -21 -39 -47 -25 -27 -45 -51 -45 -55 0 -25 -85 12 -165 72 -36 27
-66 63 -105 129 -30 50 -58 91 -63 91 -4 0 -6 4 -2 9 3 5 -1 15 -8 23 -15 15
-31 49 -29 61 1 4 -2 7 -6 7 -5 0 -31 46 -57 103 -26 56 -53 105 -59 109 -6 4
-7 8 -3 8 5 0 -2 15 -15 33 -13 17 -23 36 -23 40 0 4 -7 12 -15 17 -8 5 -10
10 -5 10 6 0 6 3 0 8 -6 4 -24 30 -40 57 -43 75 -244 265 -281 265 -8 0 -14 5
-14 10 0 6 -5 10 -11 10 -6 0 -37 15 -68 34 -31 19 -102 52 -158 75 -83 33
-122 42 -210 51 -141 13 -248 12 -299 -4z"/>
</g>
</svg>
